# xmcd CD database file
#
# Track frame offsets:
#	150
#	12277
#	24905
#	37370
#	52807
#	66607
#	79632
#	90442
#	102652
#	116510
#	126702
#	141862
#	160827
#	172537
#	184942
#	198210
#	210877
#	223095
#
# Disc length: 3108 seconds
#
# Revision: 0
# Processed by: cddbd v1.4PL0 Copyright (c) Steve Scherf et al.
# Submitted via: CDex 1.40Release
#
DISCID=f80c2212
DTITLE=Conway Twitty - Sings Country Music's Greatest Love Songs
DYEAR=1900
DGENRE=Country
TTITLE0=I Started Loving You Again
TTITLE1=Window Up Above
TTITLE2=Crazy Arms
TTITLE3=All I Have To Offer You Is Me
TTITLE4=Blue Eyes Crying In The Rain
TTITLE5=Help Me Make It Through The Night
TTITLE6=I Fall Tp Pieces
TTITLE7=Before The Next Teardrop Falls
TTITLE8=Amanda
TTITLE9=Kiss An Angel Good Mornin'
TTITLE10=She Thinks I Still Care
TTITLE11=We've Got Tonight
TTITLE12=I Can't Help It (If I'm Still In Love With You)
TTITLE13=Please Help Me, I'm Falling In Love
TTITLE14=Faded Love
TTITLE15=You Lay So Easy On My Mind
TTITLE16=Easy Loving
TTITLE17=Half As Much
EXTD=ID3G: 2
EXTT0=
EXTT1=
EXTT2=
EXTT3=
EXTT4=
EXTT5=
EXTT6=
EXTT7=
EXTT8=
EXTT9=
EXTT10=
EXTT11=
EXTT12=
EXTT13=
EXTT14=
EXTT15=
EXTT16=
EXTT17=
PLAYORDER=
